<svg width="39" height="39" viewBox="0 0 39 39" fill="none" xmlns="http://www.w3.org/2000/svg">
<circle cx="19.5" cy="19.5" r="19.5" fill="#3E63C2"/>
<path d="M17.878 12.3171C18.0624 12.3171 18.2392 12.3903 18.3696 12.5207C18.4999 12.651 18.5732 12.8278 18.5732 13.0122V20.4268H25.9878C26.1558 20.4268 26.3181 20.4877 26.4447 20.5981C26.5713 20.7085 26.6536 20.861 26.6764 21.0274L26.6829 21.122C26.6829 25.7283 22.9478 29 18.3415 29C16.1292 29 14.0075 28.1212 12.4432 26.5568C10.8788 24.9925 10 22.8708 10 20.6585C10 16.0522 13.2717 12.3171 17.878 12.3171ZM17.1829 13.7416L16.9892 13.7639C13.5692 14.1995 11.3902 17.1208 11.3902 20.6585C11.3902 22.5021 12.1226 24.2702 13.4262 25.5738C14.7298 26.8774 16.4979 27.6098 18.3415 27.6098C21.8792 27.6098 24.7996 25.4299 25.2371 22.0108L25.2575 21.8171H17.878C17.7101 21.8171 17.5478 21.7562 17.4212 21.6458C17.2946 21.5354 17.2123 21.3829 17.1894 21.2165L17.1829 21.122V13.7416ZM20.6585 10C22.8708 10 24.9925 10.8788 26.5568 12.4432C28.1212 14.0075 29 16.1292 29 18.3415C29 18.5258 28.9268 18.7026 28.7964 18.833C28.666 18.9633 28.4892 19.0366 28.3049 19.0366H20.6585C20.4742 19.0366 20.2974 18.9633 20.167 18.833C20.0367 18.7026 19.9634 18.5258 19.9634 18.3415V10.6951C19.9634 10.5108 20.0367 10.334 20.167 10.2036C20.2974 10.0732 20.4742 10 20.6585 10ZM21.3537 11.4245V17.6463H27.5745L27.5532 17.4526C27.3562 15.9287 26.6601 14.513 25.5736 13.4264C24.487 12.3399 23.0713 11.6438 21.5474 11.4468L21.3537 11.4245Z" fill="#E8ECEC"/>
</svg>
