<svg width="39" height="39" viewBox="0 0 39 39" fill="none" xmlns="http://www.w3.org/2000/svg">
<circle cx="19.5" cy="19.5" r="19.5" fill="#3E63C2"/>
<path d="M18.0833 25.4166C18.0833 25.7283 18.1108 26.0308 18.1567 26.3333H13.0417C11.6667 26.3333 10.4658 25.875 9.47583 24.8941C8.495 23.9316 8 22.7491 8 21.365C8 20.1733 8.3575 19.11 9.0725 18.175C9.7875 17.24 10.75 16.6441 11.8958 16.3875C12.2808 14.985 13.0417 13.8483 14.1875 12.9775C15.3333 12.1066 16.635 11.6666 18.0833 11.6666C19.8708 11.6666 21.3833 12.29 22.63 13.5366C23.8767 14.7833 24.5 16.2958 24.5 18.0833C25.5542 18.2025 26.425 18.6608 27.1217 19.4583C27.1767 19.5041 27.2133 19.5775 27.25 19.6325C26.425 19.2291 25.49 19 24.5 19C23.8675 19 23.2442 19.1008 22.6667 19.2658V18.0833C22.6667 16.8183 22.2083 15.7366 21.3283 14.8383C20.43 13.9583 19.3483 13.5 18.0833 13.5C16.8183 13.5 15.7367 13.9583 14.8383 14.8383C13.9583 15.7366 13.5 16.8183 13.5 18.0833H13.0417C12.1525 18.0833 11.4008 18.395 10.7775 19.0275C10.145 19.6508 9.83333 20.4025 9.83333 21.2916C9.83333 22.1808 10.145 22.9325 10.7775 23.5833C11.4008 24.1883 12.1525 24.5 13.0417 24.5H18.1567C18.1108 24.8025 18.0833 25.105 18.0833 25.4166ZM28.9275 26.92L28.0108 28.5058C27.9467 28.625 27.8275 28.625 27.7083 28.625L26.5808 28.1666C26.3333 28.3316 26.0858 28.4783 25.8108 28.5975L25.6367 29.8075C25.6183 29.9175 25.5175 30 25.4167 30H23.5833C23.455 30 23.3633 29.9175 23.345 29.8075L23.1708 28.5975C22.8867 28.4875 22.63 28.3316 22.3917 28.1666L21.255 28.625C21.145 28.625 21.0258 28.625 20.9708 28.5058L20.0542 26.92C20.0286 26.8721 20.0201 26.817 20.0301 26.7636C20.0401 26.7103 20.068 26.662 20.1092 26.6266L21.0808 25.875C21.0443 25.5705 21.0443 25.2628 21.0808 24.9583L20.1092 24.2066C20.0662 24.1726 20.0369 24.1242 20.0268 24.0702C20.0167 24.0163 20.0264 23.9606 20.0542 23.9133L20.9708 22.3275C21.035 22.2083 21.1542 22.2083 21.255 22.2083L22.3917 22.6666C22.63 22.5016 22.8958 22.355 23.1708 22.2358L23.345 21.0258C23.3558 20.9708 23.3856 20.9214 23.4291 20.8862C23.4727 20.851 23.5273 20.8322 23.5833 20.8333H25.4167C25.5175 20.8333 25.6183 20.9158 25.6275 21.0258L25.8017 22.2358C26.0858 22.3458 26.3333 22.5016 26.5808 22.6666L27.7083 22.2083C27.8275 22.2083 27.9467 22.2083 28.0017 22.3275L28.9183 23.9133C28.9733 24.0141 28.9458 24.1333 28.8633 24.2066L27.8917 24.9583C27.9192 25.1141 27.9283 25.2608 27.9283 25.4166C27.9283 25.5725 27.91 25.7191 27.8917 25.875L28.8725 26.6266C28.955 26.7 28.9825 26.8191 28.9275 26.92ZM25.875 25.4166C25.875 24.6558 25.2517 24.0416 24.5 24.0416C23.7483 24.0416 23.125 24.6558 23.125 25.4166C23.125 26.1775 23.73 26.7916 24.5 26.7916C25.27 26.7916 25.875 26.1775 25.875 25.4166Z" fill="#E8ECEC"/>
</svg>
