<svg width="39" height="39" viewBox="0 0 39 39" fill="none" xmlns="http://www.w3.org/2000/svg">
<circle cx="19.5" cy="19.5" r="19.5" fill="#3E63C2"/>
<path d="M18.65 24.9286H20.0429M24.2215 10.6786H14.4715C14.1021 10.6786 13.7478 10.8216 13.4866 11.0761C13.2254 11.3306 13.0786 11.6758 13.0786 12.0357V26.9643C13.0786 27.3242 13.2254 27.6694 13.4866 27.9239C13.7478 28.1785 14.1021 28.3214 14.4715 28.3214H24.2215C24.5909 28.3214 24.9452 28.1785 25.2064 27.9239C25.4676 27.6694 25.6143 27.3242 25.6143 26.9643V12.0357C25.6143 11.6758 25.4676 11.3306 25.2064 11.0761C24.9452 10.8216 24.5909 10.6786 24.2215 10.6786Z" stroke="#E8ECEC" stroke-linecap="round" stroke-linejoin="round"/>
</svg>
