<svg width="39" height="39" viewBox="0 0 39 39" fill="none" xmlns="http://www.w3.org/2000/svg">
<circle cx="19.5" cy="19.5" r="19.5" fill="#3E63C2"/>
<path d="M23.1248 21.9219C22.6656 21.9217 22.2115 22.0187 21.7924 22.2063C21.3733 22.394 20.9985 22.6681 20.6928 23.0107L16.4905 20.3097C16.6718 19.8969 16.7655 19.4509 16.7655 19C16.7655 18.5491 16.6718 18.1032 16.4905 17.6904L20.6928 14.9893C21.2411 15.6009 21.9996 15.9834 22.8173 16.0606C23.635 16.1378 24.4517 15.9041 25.1048 15.406C25.7578 14.9079 26.1992 14.1821 26.341 13.3731C26.4827 12.5641 26.3144 11.7314 25.8696 11.0409C25.4249 10.3505 24.7362 9.85298 23.941 9.64759C23.1458 9.4422 22.3024 9.544 21.5788 9.9327C20.8553 10.3214 20.3048 10.9685 20.0371 11.7449C19.7694 12.5214 19.804 13.3702 20.1342 14.1222L15.9319 16.8232C15.491 16.3302 14.9108 15.9827 14.2681 15.8266C13.6253 15.6706 12.9504 15.7133 12.3325 15.9493C11.7146 16.1853 11.1829 16.6033 10.8079 17.1481C10.4328 17.6928 10.2319 18.3386 10.2319 19C10.2319 19.6614 10.4328 20.3073 10.8079 20.852C11.1829 21.3968 11.7146 21.8148 12.3325 22.0508C12.9504 22.2867 13.6253 22.3295 14.2681 22.1735C14.9108 22.0174 15.491 21.6699 15.9319 21.1768L20.1342 23.8779C19.8521 24.5222 19.7856 25.2405 19.9446 25.9257C20.1036 26.6109 20.4796 27.2264 21.0166 27.6807C21.5536 28.135 22.223 28.4038 22.9251 28.447C23.6272 28.4902 24.3245 28.3056 24.9132 27.9205C25.5018 27.5355 25.9505 26.9707 26.1923 26.3102C26.4341 25.6496 26.4562 24.9287 26.2552 24.2546C26.0543 23.5805 25.641 22.9893 25.077 22.569C24.5129 22.1487 23.8283 21.9217 23.1248 21.9219ZM23.1248 10.5782C23.5668 10.5782 23.9987 10.7092 24.3662 10.9547C24.7336 11.2002 25.02 11.5492 25.1891 11.9575C25.3582 12.3658 25.4025 12.815 25.3163 13.2484C25.2301 13.6819 25.0173 14.08 24.7048 14.3925C24.3923 14.705 23.9942 14.9178 23.5607 15.004C23.1273 15.0902 22.6781 15.0459 22.2698 14.8768C21.8615 14.7077 21.5125 14.4213 21.267 14.0539C21.0215 13.6865 20.8905 13.2545 20.8905 12.8125C20.8905 12.2199 21.1259 11.6516 21.5449 11.2326C21.9639 10.8136 22.5322 10.5782 23.1248 10.5782ZM13.4998 21.2344C13.0579 21.2344 12.6259 21.1034 12.2585 20.8579C11.891 20.6123 11.6047 20.2634 11.4355 19.8551C11.2664 19.4468 11.2222 18.9976 11.3084 18.5641C11.3946 18.1307 11.6074 17.7326 11.9199 17.4201C12.2324 17.1076 12.6305 16.8948 13.0639 16.8086C13.4974 16.7224 13.9466 16.7666 14.3549 16.9357C14.7632 17.1049 15.1121 17.3912 15.3577 17.7587C15.6032 18.1261 15.7342 18.5581 15.7342 19C15.7342 19.5926 15.4988 20.161 15.0798 20.58C14.6608 20.999 14.0924 21.2344 13.4998 21.2344ZM23.1248 27.4219C22.6829 27.4219 22.2509 27.2909 21.8835 27.0454C21.516 26.7998 21.2297 26.4509 21.0605 26.0426C20.8914 25.6343 20.8472 25.1851 20.9334 24.7516C21.0196 24.3182 21.2324 23.9201 21.5449 23.6076C21.8574 23.2951 22.2555 23.0823 22.6889 22.9961C23.1224 22.9099 23.5716 22.9541 23.9799 23.1232C24.3882 23.2924 24.7371 23.5787 24.9827 23.9462C25.2282 24.3136 25.3592 24.7456 25.3592 25.1875C25.3592 25.481 25.3014 25.7715 25.1891 26.0426C25.0768 26.3137 24.9123 26.56 24.7048 26.7675C24.4973 26.975 24.251 27.1395 23.9799 27.2518C23.7088 27.3641 23.4183 27.4219 23.1248 27.4219Z" fill="#E8ECEC"/>
</svg>
