<svg width="39" height="39" viewBox="0 0 39 39" fill="none" xmlns="http://www.w3.org/2000/svg">
<circle cx="19.5" cy="19.5" r="19.5" fill="#3E63C2"/>
<path d="M17.75 21.4056L15.9694 19.625L15 20.5944L17.75 23.3444L23.25 17.8444L22.2806 16.875L17.75 21.4056Z" fill="#E8ECEC"/>
<path d="M19.25 30.625L15.004 28.3611C13.7935 27.7171 12.7813 26.7557 12.0759 25.5799C11.3705 24.4042 10.9985 23.0586 11 21.6875V12.75C11.0004 12.3854 11.1454 12.0359 11.4031 11.7781C11.6609 11.5203 12.0104 11.3754 12.375 11.375H26.125C26.4896 11.3754 26.8391 11.5203 27.0969 11.7781C27.3547 12.0359 27.4996 12.3854 27.5 12.75V21.6875C27.5015 23.0586 27.1295 24.4042 26.4241 25.5799C25.7187 26.7557 24.7065 27.7171 23.496 28.3611L19.25 30.625ZM12.375 12.75V21.6875C12.3739 22.8094 12.6783 23.9104 13.2555 24.8723C13.8328 25.8343 14.6611 26.6208 15.6516 27.1476L19.25 29.0664L22.8484 27.1483C23.839 26.6215 24.6674 25.8348 25.2447 24.8727C25.8219 23.9106 26.1263 22.8095 26.125 21.6875V12.75H12.375Z" fill="#E8ECEC"/>
</svg>
